<svg width="512" height="512" viewBox="0 0 512 512" xmlns="http://www.w3.org/2000/svg">
  <rect width="512" height="512" fill="#2563eb"/>
  <g fill="white">
    <!-- Guitar neck -->
    <rect x="100" y="150" width="312" height="212" rx="8" fill="#8B4513"/>

    <!-- Frets -->
    <line x1="140" y1="150" x2="140" y2="362" stroke="white" stroke-width="2"/>
    <line x1="180" y1="150" x2="180" y2="362" stroke="white" stroke-width="2"/>
    <line x1="220" y1="150" x2="220" y2="362" stroke="white" stroke-width="2"/>
    <line x1="260" y1="150" x2="260" y2="362" stroke="white" stroke-width="2"/>
    <line x1="300" y1="150" x2="300" y2="362" stroke="white" stroke-width="2"/>
    <line x1="340" y1="150" x2="340" y2="362" stroke="white" stroke-width="2"/>
    <line x1="380" y1="150" x2="380" y2="362" stroke="white" stroke-width="2"/>

    <!-- Strings -->
    <line x1="100" y1="170" x2="412" y2="170" stroke="white" stroke-width="1"/>
    <line x1="100" y1="190" x2="412" y2="190" stroke="white" stroke-width="1"/>
    <line x1="100" y1="210" x2="412" y2="210" stroke="white" stroke-width="1"/>
    <line x1="100" y1="230" x2="412" y2="230" stroke="white" stroke-width="1"/>
    <line x1="100" y1="250" x2="412" y2="250" stroke="white" stroke-width="1"/>
    <line x1="100" y1="270" x2="412" y2="270" stroke="white" stroke-width="1"/>

    <!-- Notes -->
    <circle cx="160" cy="190" r="8" fill="#FF6B6B"/>
    <circle cx="200" cy="210" r="8" fill="#4ECDC4"/>
    <circle cx="240" cy="230" r="8" fill="#45B7D1"/>
    <circle cx="280" cy="250" r="8" fill="#96CEB4"/>
    <circle cx="320" cy="270" r="8" fill="#FFEAA7"/>
  </g>
</svg>